<svg xmlns="http://www.w3.org/2000/svg" viewBox="0 0 64 64"><g id="_21-Delivery_car" data-name="21-Delivery car"><rect x="3" y="39" width="4" height="4" style="fill:#cb3541"/><path d="M63,39v6a2.006,2.006,0,0,1-2,2H57a5,5,0,0,0-10,0H21V39Z" style="fill:#cb3541"/><path d="M63,14V39H21V14a2.006,2.006,0,0,1,2-2H61A2.006,2.006,0,0,1,63,14Z" style="fill:#febd55"/><path d="M52,42a5,5,0,1,1-5,5A5,5,0,0,1,52,42Zm2,5a2,2,0,1,0-2,2A2.006,2.006,0,0,0,54,47Z" style="fill:#393d48"/><circle cx="52" cy="47" r="2" style="fill:#c1cfe8"/><path d="M21,39v8H19A5,5,0,0,0,9,47H3a1.955,1.955,0,0,1-1.41-.59,1.98,1.98,0,0,1,0-2.82A1.955,1.955,0,0,1,3,43H7V39H3l4.54-5H21Z" style="fill:#fc9e20"/><path d="M21,28v6H7.54l4.86-5.35A2.029,2.029,0,0,1,13.88,28Z" style="fill:#edf4fa"/><path d="M14,42a5,5,0,1,1-5,5A5,5,0,0,1,14,42Zm2,5a2,2,0,1,0-2,2A2.006,2.006,0,0,0,16,47Z" style="fill:#393d48"/><circle cx="14" cy="47" r="2" style="fill:#c1cfe8"/><polygon points="21 34 21 28 15 34 21 34" style="fill:#c1cfe8"/><path d="M3,43a1.955,1.955,0,0,0-1.41.59,1.98,1.98,0,0,0,0,2.82A1.955,1.955,0,0,0,3,47H9a4.977,4.977,0,0,1,2.029-4H3Z" style="fill:#e68c15"/><path d="M18,34v4a4.983,4.983,0,0,1-2.439,4.274A4.984,4.984,0,0,1,19,47h2V34Z" style="fill:#e68c15"/><path d="M36,35A10,10,0,0,1,26,25V12H23a2.006,2.006,0,0,0-2,2V39H63V35Z" style="fill:#fc9e20"/><path d="M27,39H21v8H47a4.977,4.977,0,0,1,2.029-4H31A4,4,0,0,1,27,39Z" style="fill:#a81e29"/><path d="M54.971,43A4.977,4.977,0,0,1,57,47h4a2.006,2.006,0,0,0,2-2V43Z" style="fill:#a81e29"/><path d="M14,44a3,3,0,1,0,3,3A3,3,0,0,0,14,44Zm0,4a1,1,0,1,1,1-1A1,1,0,0,1,14,48Z"/><path d="M52,44a3,3,0,1,0,3,3A3,3,0,0,0,52,44Zm0,4a1,1,0,1,1,1-1A1,1,0,0,1,52,48Z"/><rect x="14" y="36" width="2" height="2"/><rect x="32" y="38" width="2" height="2"/><path d="M61,11H59v2h2a1,1,0,0,1,1,1V38H36v2H62v5a1,1,0,0,1-1,1H57.91a6,6,0,1,0-10.37,5H18.46a5.979,5.979,0,0,0,1.45-3H44V46H22V14a1,1,0,0,1,1-1H53V11H23a3,3,0,0,0-3,3V33H9.806l3.339-3.673a1,1,0,0,1,.74-.327H18V27H13.885a3,3,0,0,0-2.22.981L7.1,33H7v.113L2.26,38.327A1,1,0,0,0,2,39v3.171A3,3,0,0,0,3,48H8.09a5.979,5.979,0,0,0,1.45,3H1v2H59V51H56.46a5.979,5.979,0,0,0,1.45-3H61a3,3,0,0,0,3-3V14A3,3,0,0,0,61,11ZM6,40v2H4V40ZM2,45a1,1,0,0,1,1-1H7a1,1,0,0,0,1-1V39a1,1,0,0,0-1-1H5.261l2.727-3H20V46h-.09A5.993,5.993,0,0,0,8.09,46H3A1,1,0,0,1,2,45Zm8,2a4,4,0,1,1,4,4A4,4,0,0,1,10,47Zm38,0a4,4,0,1,1,4,4A4,4,0,0,1,48,47Z"/><rect x="55" y="11" width="2" height="2"/><rect x="61" y="51" width="2" height="2"/><path d="M31.293,42.707l1.414-1.414L30.414,39l2.293-2.293-1.414-1.414-3,3a1,1,0,0,0,0,1.414Z"/><path d="M30.5,24.521l-2.752,1.1A2.789,2.789,0,0,0,28.789,31H32V29H28.789a.789.789,0,0,1-.293-1.521l2.752-1.1A2.789,2.789,0,0,0,30.211,21H27v2h3.211a.789.789,0,0,1,.293,1.521Z"/><path d="M39,31V27h1V25H39V22H37v3H36V21H34v5a1,1,0,0,0,1,1h2v4Z"/><path d="M51,31V25a1,1,0,0,0-1-1H47V20H45V31h2V26h2v5Z"/><path d="M52,24v7h2V28.186A3.365,3.365,0,0,1,57,26V24a4.806,4.806,0,0,0-3,1V24Z"/><rect x="58" y="29" width="2" height="2"/></g></svg>